<svg viewBox="0 -98 512 512" xmlns="http://www.w3.org/2000/svg"><path d="m498.285156 311.464844h-485.9375c-4.261718 0-7.714844-3.457032-7.714844-7.71875 0-4.261719 3.453126-7.714844 7.714844-7.714844h485.9375c4.261719 0 7.714844 3.453125 7.714844 7.714844 0 4.261718-3.453125 7.71875-7.714844 7.71875zm0 0" fill="#e4eaf7"/><path d="m256.003906 121.453125c-4.265625 0-7.71875-3.457031-7.71875-7.71875v-26.699219c0-8.550781 5.875-15.984375 14.289063-18.070312 12.804687-3.179688 21.4375-15.085938 20.523437-28.308594-.921875-13.414062-11.738281-24.226562-25.152344-25.152344-7.648437-.53125-14.910156 2.042969-20.472656 7.234375-5.570312 5.195313-8.636718 12.25-8.636718 19.863281 0 4.261719-3.453126 7.714844-7.714844 7.714844-4.265625 0-7.71875-3.453125-7.71875-7.714844 0-11.765624 4.933594-23.117187 13.539062-31.148437 8.722656-8.140625 20.109375-12.171875 32.066406-11.347656 21.0625 1.453125 38.039063 18.429687 39.488282 39.492187 1.429687 20.710938-12.113282 39.359375-32.203125 44.347656-1.515625.375-2.574219 1.644532-2.574219 3.089844v26.699219c0 4.265625-3.453125 7.71875-7.714844 7.71875zm0 0" fill="#707487"/><path d="m199.757812 174.46875c-.109374-1.433594-.164062-2.875-.164062-4.328125 0-31.152344 25.253906-56.40625 56.40625-56.40625 31.15625 0 56.40625 25.253906 56.40625 56.40625 0 1.433594-.050781 2.851563-.160156 4.253906" fill="#ff9b54"/><path d="m512 312.40625v.253906c0 2.5625-2.746094 4.179688-4.992188 2.921875l-204.519531-113.492187-41.816406-23.203125c-2.902344-1.613281-6.441406-1.613281-9.34375 0l-41.808594 23.214843-204.550781 113.5625c-.523438.289063-1.078125.421876-1.605469.421876-1.757812 0-3.363281-1.40625-3.363281-3.363282 0-16.90625 9.21875-32.472656 24.046875-40.613281l8.296875-4.605469c1.539062-.855468 3.433594.261719 3.433594 2.023438 0 4.230468 3.269531 7.917968 7.5 8.035156 4.371094.117188 7.9375-3.382812 7.9375-7.714844v-11.472656c0-.839844.453125-1.613281 1.1875-2.019531l147.355468-81.882813 51.570313-28.664062c2.902344-1.617188 6.441406-1.617188 9.355469-.011719l51.5625 28.59375 147.496094 81.761719c.824218.457031 1.332031 1.324218 1.332031 2.265625v11.109375c0 4.230468 3.269531 7.917968 7.5 8.035156 4.371093.121094 7.9375-3.382812 7.9375-7.714844 0-1.972656 2.117187-3.21875 3.84375-2.265625l8.019531 4.445313c14.601562 8.203125 23.625 23.636718 23.625 40.378906zm0 0" fill="#ffb464"/></svg>