<svg xmlns="http://www.w3.org/2000/svg" width="142.323" height="88.952" viewBox="0 0 142.323 88.952">
  <g id="hanger" transform="translate(0 -96)">
    <g id="Group_20" data-name="Group 20" transform="translate(0 96)">
      <path id="Path_9" data-name="Path 9" d="M136.707,166.215,74.123,133.153v-4.174c.026-.006.052-.015.083-.022,9.859-2.441,16.479-8.582,16.479-16.479A16.479,16.479,0,0,0,74.206,96c-8.4,0-15.71,6.15-16.431,14.392a2.289,2.289,0,0,0-.035.387c0,.015,0,.03,0,.048a2.967,2.967,0,0,0,5.933,0h.017a9.239,9.239,0,0,1,2.58-5.551,10.988,10.988,0,0,1,7.939-3.344,10.558,10.558,0,0,1,10.546,10.548,8.319,8.319,0,0,1-2.758,6.048,19.976,19.976,0,0,1-9.212,4.673s-4.5,1.39-4.582,1.418v1.032h0v7.5L5.62,166.215a9.9,9.9,0,0,0-5.62,8.7c0,5.542,5.008,10.033,11.184,10.033H131.143c6.176,0,11.18-4.491,11.18-10.033A9.892,9.892,0,0,0,136.707,166.215Zm-5.564,12.8H11.184c-2.845,0-5.251-1.876-5.251-4.1a4.013,4.013,0,0,1,2.406-3.44l.026-.009.026-.017,62.766-33.159,62.779,33.159.026.017.026.009a4.013,4.013,0,0,1,2.406,3.44C136.394,177.142,133.988,179.019,131.143,179.019Z" transform="translate(0 -96)" fill="#fff"/>
    </g>
  </g>
</svg>
