<svg viewBox="0 -81 512 512" xmlns="http://www.w3.org/2000/svg"><path d="m331.621094 66.066406 13.539062 30.40625 24.703125 21.734375v-81.695312zm0 0" fill="#3b3b47"/><path d="m296.480469 54.242188-145.296875 12.566406c-9.148438.789062-18.296875-1.40625-26.085938-6.265625-4.773437-2.980469-10.324218-6.457031-15.398437-9.671875-10.699219-6.773438-23.101563-10.359375-35.769531-10.359375-4.234376 0-8.332032 0-11.367188 0-2.769531 0-5.011719 2.246093-5.011719 5.011719v120.023437c0 2.769531 2.246094 5.011719 5.015625 5.011719 18.191406 0 32.894532-14.820313 32.734375-33l.011719-1.199219c.121094-12.363281 10.179688-22.320313 22.550781-22.320313h108.425781c22.660157 0 40.050782 20.089844 36.789063 42.5l-9.996094 68.542969h92.257813v-126.054687c0-26.355469-22.585938-47.058594-48.859375-44.785156zm0 0" fill="#464655"/><path d="m262.199219 141.558594.878906-6.03125c3.261719-22.410156-14.128906-42.496094-36.789063-42.496094h-108.425781c-46.300781 0-30.28125 28.757812-60.3125 28.757812v43.757813c0 2.765625 2.246094 5.011719 5.015625 5.011719 18.191406 0 32.890625-14.824219 32.734375-33l.011719-1.199219c.117188-12.363281 10.179688-22.320313 22.550781-22.320313h108.425781c17.410157 0 31.695313 11.863282 35.910157 27.519532zm0 0" fill="#3b3b47"/><path d="m253.078125 225.078125h92.261719v-21.007813h-89.195313zm0 0" fill="#3b3b47"/><path d="m64.933594 342.121094h-22.773438c-2.28125 0-4.128906-1.847656-4.128906-4.128906v-19.878907h31.03125v19.878907c0 2.28125-1.847656 4.128906-4.128906 4.128906zm0 0" fill="#707487"/><path d="m465.335938 342.121094h-22.773438c-2.28125 0-4.128906-1.847656-4.128906-4.128906v-19.878907h31.03125v19.878907c0 2.28125-1.847656 4.128906-4.128906 4.128906zm0 0" fill="#707487"/><path d="m496.0625 318.613281h-483.628906c-2.722656 0-4.933594-2.210937-4.933594-4.933593v-84.167969c0-2.722657 2.210938-4.933594 4.933594-4.933594h483.628906c2.722656 0 4.933594 2.210937 4.933594 4.933594v84.167969c0 2.722656-2.210938 4.933593-4.933594 4.933593zm0 0" fill="#ffb464"/><path d="m496.058594 224.578125h-26.59375c0 35.636719-28.90625 64.523437-64.566406 64.523437h-397.398438v24.574219c0 2.726563 2.210938 4.9375 4.9375 4.9375h483.621094c2.726562 0 4.9375-2.210937 4.9375-4.9375v-84.160156c0-2.726563-2.210938-4.9375-4.9375-4.9375zm0 0" fill="#ff9b54"/><path d="m491 98.03125h-29.054688c-7.457031 0-13.5-6.042969-13.5-13.5v-.007812c0-7.457032 6.042969-13.5 13.5-13.5h29.054688c7.457031 0 13.5 6.042968 13.5 13.5v.007812c0 7.457031-6.042969 13.5-13.5 13.5zm0 0" fill="#d7deed"/><path d="m490.984375 87.785156h-29.027344c-5.648437 0-10.480469-3.464844-12.5-8.378906-.648437 1.578125-1.015625 3.308594-1.015625 5.121094 0 7.460937 6.050782 13.503906 13.515625 13.503906h29.027344c7.464844 0 13.515625-6.042969 13.515625-13.503906 0-1.8125-.363281-3.542969-1.011719-5.121094-2.019531 4.914062-6.855469 8.378906-12.503906 8.378906zm0 0" fill="#c7cfe2"/><path d="m381.890625 148.550781h-.027344c-6.625 0-12-5.371093-12-12v-104.046875c0-6.625 5.375-12 12-12h.027344c6.625 0 12 5.375 12 12v104.046875c0 6.628907-5.375 12-12 12zm0 0" fill="#d7deed"/><path d="m381.878906 113.539062c-6.636718 0-12.015625-5.375-12.015625-12.003906v35.011719c0 6.632813 5.378907 12.003906 12.015625 12.003906 6.632813 0 12.011719-5.375 12.011719-12.003906v-35.011719c0 6.628906-5.378906 12.003906-12.011719 12.003906zm0 0" fill="#c7cfe2"/><path d="m323.234375 102.035156c0-11.605468-9.410156-21.007812-21.019531-21.007812-11.613282 0-21.023438 9.402344-21.023438 21.007812 0 11.601563 9.410156 21.007813 21.023438 21.007813 11.609375 0 21.019531-9.40625 21.019531-21.007813zm0 0" fill="#ffd764"/><path d="m496.0625 217.078125h-114.195312v-7.003906c0-4.140625-3.355469-7.5-7.5-7.5-4.140626 0-7.5 3.359375-7.5 7.5v7.003906h-14.027344v-39.519531h40.886718c17.472657 0 31.6875-14.207032 31.6875-31.667969v-21.601563h1.640626c7.78125 0 15.109374-4.140624 19.121093-10.800781l6.195313-10.289062c2.875 1.480469 6.125 2.332031 9.574218 2.332031h29.054688c11.578125 0 21-9.417969 21-21.007812 0-11.582032-9.421875-21-21-21h-29.058594c-11.578125 0-21 9.417968-21 21.007812 0 2.351562.40625 4.601562 1.121094 6.710938l-8.738281 14.503906c-1.3125 2.183594-3.71875 3.542968-6.269531 3.542968h-1.644532v-37.765624c0-4.144532-3.355468-7.5-7.5-7.5-4.140625 0-7.5 3.355468-7.5 7.5v74.363281c0 9.191406-7.484375 16.671875-16.683594 16.671875h-40.886718v-9.507813c0-4.140625-3.359375-7.5-7.5-7.5s-7.5 3.359375-7.5 7.5v63.527344h-75.921875l8.582031-58.960937c1.867188-12.832032-1.929688-25.820313-10.414062-35.628907-8.492188-9.820312-20.8125-15.449219-33.796876-15.449219h-108.425781c-16.410156 0-29.890625 13.34375-30.050781 29.746094l-.011719 1.199219v.140625c.058594 6.769531-2.535156 13.152344-7.304687 17.964844-3.117188 3.140625-6.910156 5.359375-11.058594 6.523437-.285156-.035156-.578125-.054687-.875-.054687-1.269531 0-2.464844.316406-3.511719.875v-114.921875h8.882813c11.269531 0 22.25 3.179687 31.753906 9.199219 5.089844 3.222656 10.65625 6.707031 15.441406 9.695312 9.101563 5.679688 20.003906 8.292969 30.699219 7.371094l145.296875-12.5625c10.589844-.917969 20.746094 2.535156 28.578125 9.722656 7.035156 6.453125 11.214844 15.023438 11.992187 24.398438-.058593.699218-.019531 1.40625.117188 2.097656.007812.367187.027344.726562.027344 1.09375v25.265625c0 4.144531 3.355468 7.5 7.5 7.5 4.140625 0 7.5-3.355469 7.5-7.5v-11.074219l9.523437 8.382812v14.953126c0 10.75 8.75 19.5 19.523438 19.5 10.753906 0 19.5-8.75 19.5-19.5v-59.195313c0-4.140625-3.355469-7.5-7.5-7.5-4.140625 0-7.5 3.359375-7.5 7.5v59.195313c0 2.480468-2.019531 4.5-4.523438 4.5-2.480469 0-4.5-2.019532-4.5-4.5v-104.050782c0-2.480468 2.019531-4.5 4.523438-4.5 2.480469 0 4.5 2.019532 4.5 4.5v13.011719c0 4.140625 3.359375 7.5 7.5 7.5 4.144531 0 7.5-3.359375 7.5-7.5v-13.011719c0-10.75-8.746094-19.5-19.523438-19.5-10.75 0-19.5 8.75-19.5 19.5v.324219l-30.953125 23.921875c-10.199218-7.472656-22.875-11.078125-35.578125-9.980469l-1.550781.132813v-39.402344c0-4.140625-3.359375-7.5-7.5-7.5s-7.5 3.359375-7.5 7.5v40.699219l-128.742188 11.136719c-7.480468.644531-15.105468-1.183594-21.472656-5.15625-4.757812-2.96875-10.292968-6.4375-15.355468-9.640626-11.164063-7.070312-23.957032-11.015624-37.148438-11.480468v-6.050782c0-4.144531-3.359375-7.5-7.5-7.5s-7.5 3.355469-7.5 7.5v6.054688c-6.433594.511719-11.511719 5.898438-11.511719 12.460938v120.023437c0 6.390625 4.816407 11.667969 11.011719 12.414063v39.117187h-48.628906c-6.855469 0-12.433594 5.578125-12.433594 12.433594v84.167969c0 6.855468 5.578125 12.433593 12.433594 12.433593h18.097656v11.878907c0 6.414062 5.214844 11.628906 11.628906 11.628906h22.773438c6.414062 0 11.628906-5.21875 11.628906-11.628906v-11.878907h299.4375c4.140625 0 7.5-3.359375 7.5-7.5s-3.359375-7.5-7.5-7.5h-361v-79.035156h107.5c4.140625 0 7.5-3.355469 7.5-7.5 0-4.140625-3.359375-7.5-7.5-7.5h-46.4375v-41.328125c5.617188-1.992188 10.761719-5.238281 15.085938-9.601562 7.589843-7.65625 11.726562-17.804688 11.652343-28.582032l.011719-1.132812c.078125-8.214844 6.832031-14.894532 15.050781-14.894532h108.425781c8.628907 0 16.8125 3.738282 22.453126 10.261719 5.632812 6.511719 8.152343 15.136719 6.914062 23.65625l-8.96875 61.621094h-92.9375c-4.140625 0-7.5 3.359375-7.5 7.5 0 4.144531 3.359375 7.5 7.5 7.5h339.746094v79.035156h-86.746094c-4.140625 0-7.5 3.359375-7.5 7.5s3.359375 7.5 7.5 7.5h24.183594v11.878907c0 6.414062 5.21875 11.628906 11.628906 11.628906h22.773438c6.414062 0 11.628906-5.21875 11.628906-11.628906v-11.878907h19.097656c6.855469 0 12.433594-5.578125 12.433594-12.433593v-84.167969c0-6.855469-5.578125-12.433594-12.433594-12.433594zm-34.121094-138.554687h29.058594c3.308594 0 6 2.691406 6 6.007812 0 3.308594-2.691406 6-6 6h-29.058594c-3.304687 0-6-2.6875-6-6.007812.003906-3.308594 2.695313-6 6-6zm-99.578125 23.097656-9.894531-8.710938c-1.097656-9.273437-4.667969-18.101562-10.285156-25.527344l20.179687-15.597656zm-300.800781 233h-16.03125v-8.007813h16.03125zm400.402344 0h-16.03125v-8.007813h16.03125zm0 0"/><path d="m294.796875 153.054688v42.011718c0 4.144532 3.355469 7.5 7.5 7.5 4.140625 0 7.5-3.355468 7.5-7.5v-42.011718c0-4.144532-3.359375-7.5-7.5-7.5-4.144531 0-7.5 3.355468-7.5 7.5zm0 0"/><path d="m324.8125 102.035156c0-15.71875-12.792969-28.507812-28.523438-28.507812-15.726562 0-28.519531 12.789062-28.519531 28.507812s12.792969 28.507813 28.519531 28.507813c15.730469 0 28.523438-12.789063 28.523438-28.507813zm-28.523438 13.507813c-7.453124 0-13.519531-6.0625-13.519531-13.507813 0-7.449218 6.066407-13.507812 13.519531-13.507812 7.457032 0 13.523438 6.058594 13.523438 13.507812 0 7.445313-6.066406 13.507813-13.523438 13.507813zm0 0"/></svg>